<svg xmlns="http://www.w3.org/2000/svg" viewBox="0 0 435.13 434.6"><defs><style>.cls-1{fill:none;stroke:#000;stroke-miterlimit:10;stroke-width:1.62px;}</style></defs><title>seal</title><g id="Layer_2" data-name="Layer 2"><g id="Layer_1-2" data-name="Layer 1"><path class="cls-1" d="M300.5,17.68l-2,6.31a.69.69,0,0,1-1,.51l-9.84-3.1-5.5,17.47a.69.69,0,0,1-1,.5l-14.3-4.5a.7.7,0,0,1-.51-1l5.5-17.46-9.85-3.1a.7.7,0,0,1-.51-1l2-6.31a.7.7,0,0,1,1-.51L300,16.7A.71.71,0,0,1,300.5,17.68Z"/><path class="cls-1" d="M345.76,43.57,332.27,65.45a.7.7,0,0,1-1.07.26l-12.27-7.57a.69.69,0,0,1-.25-1.07l4.5-7.29L318.6,47l-4.5,7.29a.69.69,0,0,1-1.07.25l-12.26-7.56a.7.7,0,0,1-.26-1.07L314,24a.7.7,0,0,1,1.07-.26l12.27,7.57a.69.69,0,0,1,.25,1.07l-4.49,7.29,4.57,2.82,4.5-7.29a.7.7,0,0,1,1.07-.25l12.27,7.56A.69.69,0,0,1,345.76,43.57Z"/><path class="cls-1" d="M364.6,69.62l-2.08,2,12.56,12.77a.7.7,0,0,1,0,1.1l-3.61,3.55a.69.69,0,0,1-1.1,0L357.8,76.31l-2.08,2,12.56,12.76a.7.7,0,0,1,0,1.1l-4.16,4.1a.7.7,0,0,1-1.1,0l-22.67-23a.7.7,0,0,1,0-1.1l18.32-18a.7.7,0,0,1,1.1,0l22.67,23a.71.71,0,0,1,0,1.11l-4.17,4.09a.7.7,0,0,1-1.1,0Z"/><path class="cls-1" d="M413.6,150.64c-6.4,2.86-10.47.54-16.46-12.87l-1.2-2.66-6.57,2.94a.7.7,0,0,1-1-.4l-5.8-13a.7.7,0,0,1,.39-1l23.46-10.5a.7.7,0,0,1,1,.4l7.32,16.35C420.73,143.31,420.35,147.62,413.6,150.64Zm-6.79-13.74c1.14-.51,1.7-1.36.64-3.74l-1.2-2.66-4.08,1.82,1.19,2.67C404.42,137.37,405.57,137.46,406.81,136.9Z"/><path class="cls-1" d="M413.09,162.43c7.87-1.36,14.48,1.22,17.31,17.68s-2.53,21.07-10.4,22.42c-8.1,1.4-14.9-1.15-17.73-17.57S405,163.82,413.09,162.43Zm4.1,23.79c4.41-.76,5.66-1.76,5.15-4.72s-2-3.52-6.44-2.76c-4.64.8-5.7,1.77-5.18,4.76S412.55,187,417.19,186.22Z"/><path class="cls-1" d="M428.33,264.84,403.21,258a.76.76,0,0,1-.61-.93l1.8-17a.76.76,0,0,1,.78-.78l7-.35,7.4,0-7.24-1.51-6.74-1.81a.75.75,0,0,1-.61-.92l1.8-17a.76.76,0,0,1,.79-.78l26-1.4a.71.71,0,0,1,.78.83l-1.39,13.12a.73.73,0,0,1-.82.7l-16.66-.63,3,.68,13.26,3.79a.74.74,0,0,1,.61.88l-1.13,10.69a.75.75,0,0,1-.78.74l-13.77.93-3.09,0L430,250.21a.73.73,0,0,1,.66.85l-1.39,13.13A.7.7,0,0,1,428.33,264.84Z"/><path class="cls-1" d="M411.85,291.75l-2.72-1.07-6.56,16.67a.69.69,0,0,1-1,.44l-4.71-1.85a.7.7,0,0,1-.44-1L403,288.26l-2.71-1.07-6.56,16.67a.7.7,0,0,1-1,.44l-5.44-2.13a.7.7,0,0,1-.44-1l11.83-30.09a.7.7,0,0,1,1-.44l23.93,9.4a.69.69,0,0,1,.43,1l-11.82,30.09a.7.7,0,0,1-1,.44l-5.44-2.14a.7.7,0,0,1-.44-1Z"/><path class="cls-1" d="M360.47,341.08l8.38-11.86a1,1,0,0,1,1-.45l8.55.79,1-1.43L373.5,324a.71.71,0,0,1-.18-1.09l8-11.29a.7.7,0,0,1,1.08-.19l21,14.83a.71.71,0,0,1,.19,1.09l-10.41,14.72c-8.89,12.6-12.87,13.37-18.24,9.57-3.09-2.18-4.93-4.77-3.65-9.49L360.94,342C360.29,342,360.11,341.59,360.47,341.08Zm22.69-2.36c1,.72,2,.76,3.54-1.37l1.91-2.7L385,332.07l-1.91,2.7C381.54,336.9,382.05,337.93,383.16,338.72Z"/><path class="cls-1" d="M323.29,373.17,335.64,364a.7.7,0,0,1,1.09.16l15.34,20.63a.7.7,0,0,1-.16,1.09l-12.35,9.18a.7.7,0,0,1-1.09-.16l-15.34-20.63A.7.7,0,0,1,323.29,373.17Z"/><path class="cls-1" d="M296.79,387c14.21-6.68,18.22-5.47,21.23.38a.7.7,0,0,1-.37,1l-12.83,6a.79.79,0,0,1-1.05-.33c-.79-1.22-1.59-1.27-3.92-.18s-2.48,1.86-2.09,2.71c1.78,3.77,19.64-10.32,24.72.47,2.32,4.93,1,9.27-13.46,16-14.13,6.65-17.81,5.5-20.71-.2a.71.71,0,0,1,.37-1l12.83-6a.72.72,0,0,1,1,.34c.79,1.22,1.49,1.32,3.6.33,2.33-1.09,2.52-1.79,2.11-2.67-1.8-3.81-19.66,10.28-24.73-.51C280.85,397.79,282.38,393.81,296.79,387Z"/><path class="cls-1" d="M211.9,432.89l11-19.36-.49-7a.7.7,0,0,1,.72-.83l15.12-1.07a.71.71,0,0,1,.83.73l.5,7.14L253.24,430c.38.48.18.93-.44,1l-15.58,1.1a.86.86,0,0,1-.94-.52L233.06,425l-1.13-2.73-.74,2.86-2.29,6.88a.84.84,0,0,1-.85.64l-15.58,1.1C211.85,433.83,211.59,433.42,211.9,432.89Z"/><path class="cls-1" d="M202.72,419.88c-1.35,7.86-6,13.23-22.45,10.41s-19-9.43-17.66-17.3c1.39-8.1,6.06-13.65,22.48-10.84S204.11,411.78,202.72,419.88Zm-23.8-4.09c-.76,4.42-.23,5.93,2.73,6.44s4-.74,4.75-5.15c.8-4.65.24-6-2.75-6.48S179.72,411.15,178.92,415.79Z"/><path class="cls-1" d="M125,411.49a.71.71,0,0,1-1,.39l-13.28-6.06a.7.7,0,0,1-.39-1l5.62-12.33c4-8.72,9.1-11.13,23.2-4.7s15.68,11.9,11.7,20.61l-5.62,12.33a.7.7,0,0,1-1,.39L130.9,415a.7.7,0,0,1-.38-1l5.62-12.33c1.71-3.76,1.66-4.68-.71-5.76s-3.07-.5-4.78,3.25Z"/><path class="cls-1" d="M84.1,352.06l11.3,9.13a1,1,0,0,1,.39,1l-1.34,8.48,1.36,1.1,4.53-5.61a.7.7,0,0,1,1.09-.12l10.76,8.69a.7.7,0,0,1,.12,1.09l-16.15,20a.69.69,0,0,1-1.09.11L81,384.63c-12-9.69-12.51-13.71-8.37-18.83,2.37-2.94,5.07-4.61,9.7-3l.76-10.3C83.19,351.83,83.61,351.67,84.1,352.06ZM85,374.87c-.79,1-.9,2,1.13,3.62l2.58,2.08,2.81-3.49L89,375C86.92,373.36,85.86,373.81,85,374.87Z"/><path class="cls-1" d="M67.15,329.89c9.46,12.52,9.1,16.7,4,20.85a.7.7,0,0,1-1.09-.15L61.5,339.27a.78.78,0,0,1,.1-1.1c1-1,.92-1.81-.63-3.87s-2.32-2-3.07-1.48c-3.33,2.51,14.13,17.1,4.61,24.28-4.35,3.28-8.88,2.84-18.47-9.87-9.41-12.47-9-16.31-4.06-20.31a.7.7,0,0,1,1.09.15l8.54,11.32a.73.73,0,0,1-.12,1.07c-1,1-1,1.72.42,3.59,1.55,2.05,2.26,2.09,3,1.51,3.36-2.54-14.1-17.13-4.58-24.31C53.34,316.5,57.56,317.17,67.15,329.89Z"/><path class="cls-1" d="M5,257.86,11.35,256a.7.7,0,0,1,1,.53l2.86,9.92,17.59-5.07a.7.7,0,0,1,1,.54l4.15,14.4a.7.7,0,0,1-.53,1l-17.59,5.07,2.86,9.91a.71.71,0,0,1-.53,1l-6.37,1.83a.69.69,0,0,1-1-.53L4.45,258.83A.71.71,0,0,1,5,257.86Z"/><path class="cls-1" d="M15.53,243.77c-8,.25-14.17-3.22-14.69-19.92s5.44-20.51,13.42-20.76c8.21-.25,14.59,3.21,15.11,19.87S23.74,243.51,15.53,243.77Zm-.75-24.13c-4.48.14-5.86,1-5.76,4s1.52,3.77,6,3.63c4.71-.15,5.89-1,5.8-4S19.49,219.49,14.78,219.64Z"/><path class="cls-1" d="M24.63,144.31c-2.21-.5-2.94.15-3.68,2.2-1,2.86.35,3.77,4.57,5.27,4.62,1.65,5.89,1.69,6.91-1.17.84-2.35.55-3.15-2-4.3a.75.75,0,0,1-.47-1l4.91-13.75a.66.66,0,0,1,1-.43c7.33,3.07,9.6,7.85,4.3,22.66C34.7,169.16,27.69,170.13,20,167.37c-7.51-2.69-12.13-7.81-6.64-23.18s9.34-17.37,16.81-15.12a.65.65,0,0,1,.48,1l-5,13.77A.78.78,0,0,1,24.63,144.31Z"/><path class="cls-1" d="M71.24,96l-8.13,12a1,1,0,0,1-1,.47l-8.56-.61-1,1.45,6,4a.7.7,0,0,1,.21,1.08L51,125.89a.69.69,0,0,1-1.08.21l-21.3-14.39a.69.69,0,0,1-.21-1.08L38.53,95.69c8.63-12.78,12.59-13.63,18-10,3.13,2.12,5,4.67,3.84,9.41L70.75,95C71.39,95.05,71.59,95.46,71.24,96ZM48.59,98.82c-1-.7-2.05-.73-3.51,1.43L43.23,103l3.71,2.5,1.85-2.74C50.25,100.6,49.72,99.58,48.59,98.82Z"/><path class="cls-1" d="M75.69,63.83l2,2.16,13.25-12A.7.7,0,0,1,92,54l3.4,3.75a.7.7,0,0,1,0,1.1l-13.25,12,2,2.16L97.33,61a.7.7,0,0,1,1.1,0l3.93,4.32a.7.7,0,0,1-.06,1.1L78.39,88.22a.7.7,0,0,1-1.1-.06L60,69.15a.7.7,0,0,1,0-1.1L84,46.31a.7.7,0,0,1,1.1,0L89,50.68a.69.69,0,0,1,0,1.1Z"/><path class="cls-1" d="M145.68,41.24l-13.14,7a.8.8,0,0,1-1.07-.17l-1.95-2.23-6.59,3.54.8,2.88a.81.81,0,0,1-.44,1l-13.16,7a.61.61,0,0,1-1-.49l-3.94-27.11a.88.88,0,0,1,.5-1l18.6-10a.87.87,0,0,1,1.08.12L145.8,40.15A.61.61,0,0,1,145.68,41.24Zm-21-.73L119.86,35l-1.67-2.28,1,2.67,1.92,7.11Z"/><path class="cls-1" d="M180.42,4.11l1.71,6.4a.69.69,0,0,1-.55,1l-10,2.67,4.73,17.68a.7.7,0,0,1-.55.95L161.3,36.63a.69.69,0,0,1-1-.55L155.62,18.4l-10,2.66a.69.69,0,0,1-1-.55L143,14.11a.7.7,0,0,1,.55-.95l35.93-9.6A.69.69,0,0,1,180.42,4.11Z"/><path class="cls-1" d="M210.78,8.61l.06,2.92,17.91-.4a.7.7,0,0,1,.8.76l.11,5.06a.7.7,0,0,1-.76.8l-17.91.4.07,2.92,17.91-.4a.69.69,0,0,1,.79.76l.13,5.84a.7.7,0,0,1-.76.8l-32.31.72A.7.7,0,0,1,196,28l-.57-25.69a.7.7,0,0,1,.76-.8L228.53.81a.7.7,0,0,1,.79.76l.13,5.84a.7.7,0,0,1-.76.8Z"/></g></g></svg>